<?xml version="1.0" standalone="no"?>
<!DOCTYPE svg PUBLIC "-//W3C//DTD SVG 20010904//EN"
 "http://www.w3.org/TR/2001/REC-SVG-20010904/DTD/svg10.dtd">
<svg version="1.0" xmlns="http://www.w3.org/2000/svg"
 width="1920.000000pt" height="927.000000pt" viewBox="0 0 1920.000000 927.000000"
 preserveAspectRatio="xMidYMid meet">

<g transform="translate(0.000000,927.000000) scale(0.100000,-0.100000)"
fill="#000000" stroke="none">
<path d="M0 4635 l0 -4635 9600 0 9600 0 0 4635 0 4635 -9600 0 -9600 0 0
-4635z m9700 1090 l0 -34 -48 2 c-30 1 -55 -3 -65 -12 -25 -20 -21 -67 5 -85
28 -20 38 -20 38 -1 0 8 -9 15 -20 15 -15 0 -20 7 -20 25 0 24 3 25 60 25 l60
0 0 -64 c0 -74 -3 -76 -88 -76 -72 0 -102 15 -126 63 -24 51 -15 100 29 144
31 31 37 33 104 33 l71 0 0 -35z m256 -207 c-15 -133 -89 -204 -220 -215 l-61
-5 140 141 c77 77 141 141 144 141 2 0 0 -28 -3 -62z m1174 -638 c0 -31 -3
-38 -15 -34 -16 6 -45 -12 -45 -27 0 -5 18 -9 40 -9 35 0 40 3 40 24 0 20 7
25 44 35 25 6 47 11 50 11 3 0 6 -16 6 -35 l0 -34 68 -3 67 -3 9 -65 c5 -36
10 -60 12 -55 1 6 8 36 14 68 l11 57 49 0 48 0 7 -50 c8 -57 25 -68 25 -16 0
57 8 66 55 66 l42 0 -31 -110 -31 -110 -52 0 -52 0 -7 45 c-3 25 -10 45 -15
45 -4 0 -11 -20 -15 -45 l-6 -45 -53 0 -53 0 -23 92 c-12 51 -24 87 -27 80 -2
-6 -12 -12 -23 -12 -16 0 -19 -7 -19 -41 0 -32 4 -42 20 -46 15 -4 20 -14 20
-39 l0 -34 -49 0 c-66 0 -91 29 -91 106 l0 54 -40 0 -40 0 0 -80 0 -80 -50 0
-50 0 0 80 c0 64 -3 80 -15 80 -10 0 -15 10 -15 30 0 20 5 30 15 30 8 0 19 16
25 40 13 47 46 69 108 70 l42 0 0 -40z m-3202 18 c7 -7 12 -21 12 -33 0 -49
-68 -63 -96 -20 -16 24 -16 27 1 45 20 22 65 26 83 8z m1240 0 c7 -7 12 -21
12 -33 0 -49 -68 -63 -96 -20 -16 24 -16 27 1 45 20 22 65 26 83 8z m1136 -4
c9 -8 16 -20 16 -26 0 -21 -33 -48 -60 -48 -31 0 -50 17 -50 45 0 12 5 26 12
33 17 17 64 15 82 -4z m-3130 0 c11 -4 16 -19 16 -44 l0 -38 -66 1 c-58 2 -68
-1 -85 -22 -26 -32 -24 -67 6 -96 30 -31 65 -33 65 -5 0 16 -7 20 -30 20 -28
0 -30 3 -30 35 l0 35 80 0 80 0 0 -84 0 -84 -31 -11 c-44 -15 -133 -14 -172 3
-18 7 -43 26 -57 41 -21 23 -25 36 -25 93 0 79 18 110 80 142 39 20 134 28
169 14z m1860 0 c11 -4 16 -19 16 -45 0 -38 -1 -39 -27 -32 -84 22 -107 -5
-36 -41 58 -29 71 -43 79 -83 5 -24 0 -37 -23 -63 -24 -27 -38 -33 -81 -38
-28 -2 -67 -1 -86 2 -35 7 -36 9 -36 50 l0 43 45 -15 c82 -27 102 4 27 42 -61
31 -76 49 -76 91 0 36 25 72 59 86 24 9 117 12 139 3z m1610 0 c11 -4 16 -19
16 -45 0 -38 -1 -39 -27 -32 -44 11 -78 9 -78 -5 0 -7 22 -25 50 -40 27 -15
55 -38 62 -52 l13 -25 0 24 c0 13 15 38 34 57 30 30 40 34 88 34 68 0 112 -26
128 -74 27 -82 -30 -146 -128 -146 -48 0 -58 4 -89 35 l-34 34 -28 -31 c-22
-25 -37 -32 -79 -36 -28 -2 -67 -1 -86 2 -35 7 -36 9 -36 50 l0 43 45 -15 c82
-27 102 4 27 42 -61 31 -76 49 -76 91 0 36 25 72 59 86 24 9 117 12 139 3z
m-2854 -49 c0 -28 4 -35 20 -35 16 0 20 -7 20 -30 0 -23 -4 -30 -20 -30 -17 0
-20 -7 -20 -41 0 -32 4 -42 20 -46 15 -4 20 -14 20 -39 0 -34 0 -34 -47 -34
-69 0 -93 26 -93 102 0 51 -2 58 -20 58 -16 0 -20 7 -20 30 0 23 4 30 20 30
14 0 20 7 20 24 0 17 8 26 33 34 58 18 67 16 67 -23z m1730 0 c0 -28 4 -35 20
-35 16 0 20 -7 20 -30 0 -23 -4 -30 -20 -30 -17 0 -20 -7 -20 -41 0 -32 4 -42
20 -46 15 -4 20 -14 20 -39 l0 -34 -49 0 c-66 0 -91 29 -91 106 0 47 -2 54
-20 54 -16 0 -20 7 -20 30 0 23 4 30 20 30 14 0 20 7 20 24 0 17 8 26 33 34
58 18 67 16 67 -23z m-2107 -55 c23 -19 47 -72 47 -107 0 -9 -21 -13 -72 -14
-57 0 -68 -2 -49 -10 13 -5 39 -7 57 -3 32 6 34 5 34 -24 0 -18 -6 -32 -16
-36 -24 -9 -100 -7 -128 4 -77 29 -79 155 -4 197 36 20 102 16 131 -7z m225
-17 c4 -37 4 -37 -33 -23 -47 18 -50 -2 -4 -24 39 -18 44 -25 47 -57 3 -30 -2
-41 -24 -58 -23 -18 -39 -21 -88 -19 l-61 3 -3 38 -3 38 30 -15 c16 -9 37 -16
46 -16 25 0 17 20 -12 31 -68 25 -84 81 -36 119 21 17 38 20 82 18 55 -3 56
-4 59 -35z m302 -73 l0 -110 -50 0 -50 0 0 110 0 110 50 0 50 0 0 -110z m235
79 c30 -27 35 -37 35 -76 0 -38 -5 -50 -34 -79 -30 -30 -40 -34 -87 -34 -72 0
-114 26 -128 78 -23 83 29 142 126 142 44 0 58 -5 88 -31z m155 21 c0 -7 6 -7
19 0 31 16 79 12 101 -10 17 -17 20 -33 20 -110 l0 -90 -50 0 -49 0 -3 78 c-2
60 -6 77 -18 77 -12 0 -16 -17 -18 -77 l-3 -78 -49 0 -50 0 0 110 0 110 50 0
c28 0 50 -5 50 -10z m343 -10 c23 -19 47 -72 47 -107 0 -9 -21 -13 -72 -14
-57 0 -68 -2 -49 -10 13 -5 39 -7 57 -3 32 6 34 5 34 -24 0 -18 -6 -32 -16
-36 -24 -9 -100 -7 -128 4 -77 29 -79 155 -4 197 36 20 102 16 131 -7z m507
-90 l0 -110 -50 0 -50 0 0 110 0 110 50 0 50 0 0 -110z m188 71 c3 -29 1 -33
-15 -26 -37 15 -53 17 -53 6 0 -6 15 -17 34 -25 46 -19 61 -49 46 -86 -15 -37
-54 -52 -121 -48 l-54 3 -3 37 -3 37 35 -14 c42 -18 56 -19 56 -5 0 6 -12 15
-27 21 -66 25 -81 72 -38 115 22 22 32 25 83 22 57 -3 57 -3 60 -37z m381 23
c25 -18 51 -71 51 -104 0 -18 -6 -20 -72 -21 -57 0 -68 -2 -49 -10 13 -5 39
-6 58 -3 34 6 34 6 31 -27 l-3 -34 -63 -3 c-75 -4 -106 12 -128 64 -21 50 -4
108 39 134 39 24 104 26 136 4z m161 6 c0 -7 7 -7 21 1 12 6 39 8 63 5 50 -7
49 -7 108 0 38 5 50 2 67 -15 18 -18 21 -33 21 -111 l0 -90 -50 0 -49 0 -3 78
c-2 60 -6 77 -18 77 -12 0 -16 -17 -18 -77 l-3 -78 -49 0 -49 0 -3 78 c-2 60
-6 77 -18 77 -12 0 -16 -17 -18 -77 l-3 -78 -49 0 -50 0 0 110 0 110 50 0 c28
0 50 -5 50 -10z m400 -100 l0 -110 -50 0 -50 0 0 110 0 110 50 0 50 0 0 -110z
m1530 92 c24 -19 39 -78 40 -154 l0 -47 -100 0 c-91 1 -101 3 -115 22 -21 30
-19 51 8 82 15 18 36 28 65 32 23 3 42 10 42 15 0 18 -33 20 -66 4 -45 -21
-44 -21 -44 14 0 37 22 48 96 49 36 1 59 -5 74 -17z m160 6 c0 -9 3 -9 12 0 7
7 22 12 35 12 20 0 23 -5 23 -41 0 -36 -2 -40 -20 -34 -36 11 -50 -12 -50 -81
l0 -64 -50 0 -50 0 0 110 0 110 50 0 c32 0 50 -4 50 -12z m251 2 c25 -14 49
-62 49 -100 l0 -30 -67 0 c-52 -1 -64 -3 -50 -11 10 -6 35 -8 58 -4 38 7 39 6
39 -23 0 -35 -13 -42 -81 -42 -62 0 -102 20 -119 60 -32 78 22 160 106 160 25
0 54 -5 65 -10z m-4811 -510 c0 -5 -4 -10 -10 -10 -5 0 -10 5 -10 10 0 6 5 10
10 10 6 0 10 -4 10 -10z m348 3 c-20 -5 -24 -33 -5 -34 10 0 10 -2 0 -6 -8 -2
-13 -22 -13 -44 0 -53 -18 -50 -22 4 -4 55 9 87 36 86 17 -1 18 -2 4 -6z m532
-57 l0 -64 -37 1 c-34 2 -38 5 -41 30 -4 33 13 57 39 57 12 0 19 7 19 20 0 11
5 20 10 20 6 0 10 -28 10 -64z m40 54 c0 -5 -4 -10 -10 -10 -5 0 -10 5 -10 10
0 6 5 10 10 10 6 0 10 -4 10 -10z m410 0 c0 -5 -4 -10 -10 -10 -5 0 -10 5 -10
10 0 6 5 10 10 10 6 0 10 -4 10 -10z m850 0 c0 -5 -4 -10 -10 -10 -5 0 -10 5
-10 10 0 6 5 10 10 10 6 0 10 -4 10 -10z m540 0 c0 -5 -4 -10 -10 -10 -5 0
-10 5 -10 10 0 6 5 10 10 10 6 0 10 -4 10 -10z m250 -53 l0 -64 -35 -1 c-44
-2 -63 27 -46 65 9 20 17 24 36 20 21 -3 25 0 25 19 0 13 5 24 10 24 6 0 10
-28 10 -63z m130 53 c0 -5 -4 -10 -10 -10 -5 0 -10 5 -10 10 0 6 5 10 10 10 6
0 10 -4 10 -10z m650 0 c0 -5 -4 -10 -10 -10 -5 0 -10 5 -10 10 0 6 5 10 10
10 6 0 10 -4 10 -10z m278 3 c-25 -6 -23 -33 2 -33 12 0 20 7 21 18 1 16 2 16
6 0 3 -11 14 -18 27 -18 18 0 25 -7 31 -32 l7 -33 11 33 c5 17 14 32 18 32 5
0 12 -15 17 -32 l9 -33 7 33 c4 17 12 32 18 32 6 0 7 -8 3 -17 -3 -10 -9 -30
-12 -45 -3 -16 -10 -28 -14 -28 -5 0 -15 12 -21 28 l-11 27 -6 -24 c-10 -39
-27 -35 -40 9 -14 48 -41 55 -41 10 0 -17 7 -33 18 -39 15 -9 15 -10 -5 -11
-20 0 -23 5 -23 40 0 33 -3 40 -20 40 -17 0 -20 -7 -20 -40 0 -53 -18 -51 -22
3 -4 55 9 87 36 86 17 -1 18 -2 4 -6z m-4073 -38 c0 -23 -5 -31 -22 -33 -17
-3 -23 -10 -23 -28 0 -13 -4 -24 -10 -24 -6 0 -10 27 -10 61 l0 60 33 -3 c28
-3 32 -6 32 -33z m175 20 c0 -8 6 -15 13 -16 10 0 10 -2 0 -6 -7 -2 -13 -20
-13 -38 0 -18 6 -36 13 -38 7 -3 5 -6 -5 -6 -21 -1 -33 42 -29 102 1 21 21 23
21 2z m60 0 c0 -8 6 -15 13 -16 10 0 10 -2 0 -6 -7 -2 -13 -20 -13 -38 0 -18
6 -36 13 -39 6 -3 3 -5 -8 -3 -15 2 -21 12 -25 42 -3 22 -4 48 -2 58 5 21 22
23 22 2z m1098 -16 c15 -1 15 -2 0 -6 -12 -3 -18 -14 -18 -33 0 -17 7 -33 18
-39 15 -9 15 -10 -5 -11 -20 0 -23 5 -23 40 0 25 -5 40 -12 41 -10 0 -10 2 0
6 6 2 13 12 13 21 1 15 2 15 6 0 2 -10 12 -19 21 -19z m932 16 c0 -8 6 -15 13
-16 10 0 10 -2 0 -6 -7 -2 -13 -20 -13 -38 0 -18 6 -36 13 -38 7 -3 5 -6 -5
-6 -21 -1 -33 42 -29 102 1 21 21 23 21 2z m1420 0 c0 -22 40 -19 41 3 1 16 2
16 6 0 2 -10 12 -19 21 -19 15 -1 15 -2 0 -6 -12 -3 -18 -14 -18 -33 0 -17 7
-33 18 -39 15 -9 15 -10 -5 -11 -20 0 -23 5 -23 40 0 33 -3 40 -20 40 -16 0
-20 -7 -20 -34 0 -19 6 -37 13 -40 6 -3 3 -5 -8 -3 -15 2 -21 11 -23 37 -2 19
-9 38 -15 42 -9 6 -9 8 1 8 6 0 12 7 12 15 0 8 5 15 10 15 6 0 10 -7 10 -15z
m-3640 -60 c0 -25 -4 -45 -10 -45 -5 0 -10 20 -10 45 0 25 5 45 10 45 6 0 10
-20 10 -45z m84 29 c3 -9 6 -28 6 -44 0 -26 -3 -28 -32 -27 -26 2 -34 7 -36
24 -3 17 3 24 22 29 14 3 23 10 20 15 -3 6 -15 7 -26 3 -14 -4 -18 -2 -14 5
11 17 53 13 60 -5z m204 -32 l3 -43 -33 3 c-25 2 -34 8 -36 25 -3 17 3 24 22
29 14 3 26 11 26 16 0 6 -9 8 -20 5 -11 -3 -20 -1 -20 5 0 5 12 8 28 6 24 -3
27 -7 30 -46z m153 27 c16 -30 -3 -69 -34 -69 -29 0 -47 17 -47 45 0 45 60 63
81 24z m56 9 c-11 -6 -17 -22 -17 -43 0 -19 -4 -35 -10 -35 -5 0 -10 20 -10
44 0 40 2 44 27 44 21 0 23 -2 10 -10z m139 -38 l2 -45 -7 40 c-8 53 -35 55
-39 3 -4 -51 -22 -48 -22 3 0 52 -24 48 -28 -4 -5 -53 -22 -46 -22 8 l0 45 58
-2 57 -3 1 -45z m92 5 c3 -39 1 -41 -26 -43 -20 -1 -32 3 -36 15 -7 18 17 43
42 43 7 0 10 5 6 11 -3 6 -15 9 -25 6 -11 -3 -16 -1 -13 5 3 5 16 8 27 6 18
-2 23 -11 25 -43z m192 0 c0 -25 -4 -45 -10 -45 -5 0 -10 20 -10 45 0 25 5 45
10 45 6 0 10 -20 10 -45z m148 -13 c-3 -31 -11 -58 -19 -63 -18 -11 -59 -12
-59 0 0 5 9 7 21 4 12 -4 25 0 30 8 14 22 11 27 -16 22 -19 -4 -27 0 -36 20
-18 39 2 67 47 65 l36 -1 -4 -55z m86 42 c11 -28 6 -34 -25 -34 -20 0 -29 -4
-26 -12 2 -7 16 -12 31 -11 14 1 24 -2 21 -8 -4 -5 -17 -9 -31 -9 -32 0 -51
38 -35 69 14 25 56 28 65 5z m76 5 c0 -5 -4 -7 -10 -4 -5 3 -15 3 -21 -1 -8
-5 -4 -13 11 -24 29 -22 21 -50 -15 -50 -14 0 -25 4 -25 9 0 5 8 7 19 4 30 -8
33 13 5 32 -20 13 -23 19 -13 31 13 16 49 19 49 3z m100 -34 c0 -25 -4 -45
-10 -45 -5 0 -10 20 -10 45 0 25 5 45 10 45 6 0 10 -20 10 -45z m88 33 c7 -7
12 -21 12 -33 0 -47 -62 -63 -81 -21 -22 47 33 90 69 54z m99 -38 l1 -45 -7
38 c-4 20 -11 40 -14 43 -13 13 -27 -9 -27 -42 0 -19 -4 -34 -10 -34 -5 0 -10
21 -10 46 0 45 0 45 33 42 31 -3 32 -5 34 -48z m93 31 c15 -29 13 -31 -21 -31
-20 0 -29 -4 -26 -12 2 -7 14 -13 26 -12 11 0 21 -3 21 -8 0 -12 -44 -10 -58
4 -7 7 -12 21 -12 33 0 43 50 62 70 26z m138 -8 c3 -20 -1 -23 -27 -23 -24 0
-29 -4 -24 -16 4 -10 14 -14 30 -11 16 3 21 1 15 -5 -5 -5 -20 -8 -33 -6 -28
4 -39 49 -18 74 18 22 53 13 57 -13z m190 -20 c2 -26 -1 -43 -7 -43 -6 0 -11
18 -11 41 0 52 -24 48 -28 -4 -4 -47 -22 -49 -22 -3 0 33 -14 55 -27 42 -3 -3
-9 -23 -13 -43 l-8 -38 -1 46 -1 46 58 -1 57 -1 3 -42z m86 41 c20 -8 21 -57
1 -74 -8 -7 -25 -10 -40 -6 -19 5 -25 13 -25 34 0 43 25 61 64 46z m104 -6
c14 -12 17 -78 3 -78 -6 0 -11 17 -13 38 -2 25 -8 37 -18 37 -10 0 -16 -12
-18 -37 -4 -53 -22 -48 -22 6 0 41 2 44 28 44 15 0 33 -5 40 -10z m52 -33 c0
-25 -4 -45 -10 -45 -5 0 -10 20 -10 45 0 25 5 45 10 45 6 0 10 -20 10 -45z
m148 33 c7 -7 12 -21 12 -33 0 -12 -5 -26 -12 -33 -7 -7 -21 -12 -33 -12 -12
0 -26 5 -33 12 -7 7 -12 21 -12 33 0 12 5 26 12 33 7 7 21 12 33 12 12 0 26
-5 33 -12z m70 5 c-10 -2 -20 -14 -23 -26 -2 -12 -6 -31 -8 -42 -3 -11 -5 0
-6 25 -1 43 1 46 27 47 15 0 19 -1 10 -4z m80 -41 l3 -43 -33 3 c-25 2 -33 8
-33 23 0 11 10 24 23 30 27 12 29 29 2 22 -11 -3 -20 -1 -20 5 0 5 12 8 28 6
24 -3 27 -7 30 -46z m102 2 c0 -61 -14 -84 -50 -84 -17 0 -30 4 -30 8 0 4 12
8 27 7 17 0 29 6 31 15 2 11 -5 16 -25 15 -23 0 -29 5 -31 28 -4 37 13 57 49
57 28 0 29 -2 29 -46z m100 0 c0 -61 -14 -84 -50 -84 -17 0 -30 4 -30 8 0 4
12 8 27 7 17 0 29 6 31 15 2 11 -5 16 -25 15 -23 0 -29 5 -31 28 -4 37 13 57
49 57 28 0 29 -2 29 -46z m40 1 c0 -25 -4 -45 -10 -45 -5 0 -10 20 -10 45 0
25 5 45 10 45 6 0 10 -20 10 -45z m101 24 c16 -30 -3 -69 -34 -69 -29 0 -47
17 -47 45 0 45 60 63 81 24z m233 5 c11 -28 6 -34 -25 -34 -20 0 -29 -4 -26
-12 2 -7 16 -12 31 -11 14 1 24 -2 21 -8 -4 -5 -17 -9 -31 -9 -32 0 -51 38
-35 69 14 25 56 28 65 5z m46 -29 c0 -25 -4 -45 -10 -45 -5 0 -10 20 -10 45 0
25 5 45 10 45 6 0 10 -20 10 -45z m143 23 c8 -12 7 -24 -1 -43 -10 -21 -18
-26 -37 -23 -20 4 -25 0 -28 -21 -2 -14 -5 4 -6 40 l-1 66 31 -1 c18 -1 36 -8
42 -18z m65 15 c-10 -2 -20 -14 -23 -26 -2 -12 -6 -31 -8 -42 -3 -11 -5 0 -6
25 -1 43 1 46 27 47 15 0 19 -1 10 -4z m90 -5 c28 -28 7 -78 -33 -78 -27 0
-45 18 -45 45 0 27 18 45 45 45 12 0 26 -5 33 -12z m102 -43 c0 -28 -5 -56
-12 -63 -14 -14 -58 -16 -58 -3 0 5 9 7 19 4 13 -3 23 2 30 15 9 17 8 19 -9
15 -26 -7 -50 13 -50 41 0 30 19 46 52 44 27 -2 28 -5 28 -53z m88 43 c22 -22
13 -38 -19 -38 -20 0 -29 -4 -26 -12 2 -7 14 -13 26 -12 11 0 21 -3 21 -8 0
-12 -44 -10 -58 4 -26 26 -7 78 28 78 9 0 21 -5 28 -12z m162 -33 c0 -25 -4
-45 -10 -45 -5 0 -10 20 -10 45 0 25 5 45 10 45 6 0 10 -20 10 -45z m120 36
c0 -5 -9 -7 -20 -4 -27 7 -26 -11 2 -29 28 -19 18 -48 -17 -48 -14 0 -25 4
-25 9 0 5 9 7 20 4 14 -4 20 0 20 11 0 9 -6 16 -14 16 -19 0 -29 17 -22 35 6
16 56 21 56 6z m88 -3 c7 -7 12 -21 12 -33 0 -47 -62 -63 -81 -21 -22 47 33
90 69 54z m330 -36 l3 -43 -33 3 c-25 2 -34 8 -36 25 -3 17 3 24 22 29 14 3
26 11 26 16 0 6 -9 8 -20 5 -11 -3 -20 -1 -20 5 0 5 12 8 28 6 24 -3 27 -7 30
-46z m60 37 c-12 -6 -18 -22 -18 -44 0 -19 -4 -35 -10 -35 -5 0 -10 20 -10 45
0 42 2 45 28 45 23 -1 24 -2 10 -11z m86 -5 c11 -28 6 -34 -25 -34 -20 0 -29
-4 -26 -12 2 -7 16 -12 31 -11 14 1 24 -2 21 -8 -4 -5 -17 -9 -31 -9 -32 0
-51 38 -35 69 14 25 56 28 65 5z m-2034 -689 c0 -8 -10 -16 -22 -16 l-23 -2
23 -4 c18 -4 22 -11 22 -44 l0 -39 -59 0 c-40 0 -63 5 -71 15 -7 8 -22 14 -34
14 -20 -2 -20 -2 2 -6 12 -2 22 -8 22 -13 0 -12 -132 -10 -147 2 -9 7 -13 7
-13 -1 0 -18 -51 -9 -64 12 -15 24 3 51 38 55 18 2 26 -1 26 -12 0 -10 -6 -13
-15 -10 -10 4 -15 0 -15 -15 0 -30 17 -26 35 9 12 23 22 30 45 30 17 0 30 -5
30 -12 0 -9 3 -9 12 0 15 15 55 16 64 1 4 -8 9 -8 17 0 6 6 19 11 29 11 10 0
18 6 18 14 0 14 20 21 63 25 9 0 17 -6 17 -14z m-391 -36 c7 -23 15 -47 18
-55 7 -18 -28 -19 -46 -1 -11 10 -14 10 -18 0 -3 -7 -15 -13 -28 -13 -26 0
-26 -2 10 98 2 6 15 12 28 12 19 0 26 -8 36 -41z"/>
<path d="M10784 4726 c-11 -28 0 -61 20 -61 27 0 44 30 30 53 -15 22 -43 27
-50 8z"/>
<path d="M7332 4748 c-19 -19 -14 -28 13 -28 27 0 32 12 12 29 -10 8 -17 7
-25 -1z"/>
<path d="M8062 4728 c-27 -27 0 -77 34 -64 10 4 14 16 12 38 -3 35 -25 47 -46
26z"/>
<path d="M8592 4748 c-19 -19 -14 -28 13 -28 27 0 32 12 12 29 -10 8 -17 7
-25 -1z"/>
<path d="M9672 4748 c-19 -19 -14 -28 13 -28 27 0 32 12 12 29 -10 8 -17 7
-25 -1z"/>
<path d="M11742 4663 c2 -10 10 -18 18 -18 8 0 16 8 18 18 2 12 -3 17 -18 17
-15 0 -20 -5 -18 -17z"/>
<path d="M12170 4741 c-10 -19 -8 -21 15 -21 19 0 26 5 23 17 -5 25 -25 27
-38 4z"/>
<path d="M8261 4236 c-17 -20 -4 -58 17 -54 11 2 17 13 17 32 0 33 -16 44 -34
22z"/>
<path d="M10344 4226 c-7 -29 1 -46 21 -46 16 0 31 43 20 59 -11 19 -34 12
-41 -13z"/>
<path d="M7350 4255 c0 -28 24 -34 34 -9 8 20 -1 34 -20 34 -8 0 -14 -10 -14
-25z"/>
<path d="M7480 4210 c-11 -7 -12 -12 -3 -21 13 -13 33 -4 33 17 0 16 -9 18
-30 4z"/>
<path d="M7683 4205 c-3 -9 -3 -18 0 -21 9 -9 27 6 27 22 0 19 -19 18 -27 -1z"/>
<path d="M7824 4236 c-10 -26 0 -51 21 -51 16 0 20 7 20 30 0 33 -30 49 -41
21z"/>
<path d="M8127 4213 c-12 -11 -7 -33 7 -33 12 0 26 20 26 36 0 7 -26 5 -33 -3z"/>
<path d="M8444 4226 c-7 -29 1 -46 21 -46 16 0 31 43 20 59 -11 19 -34 12 -41
-13z"/>
<path d="M8546 4235 c-4 -10 1 -15 14 -15 11 0 20 7 20 15 0 8 -6 15 -14 15
-8 0 -16 -7 -20 -15z"/>
<path d="M8806 4232 c-9 -27 3 -54 23 -50 22 5 22 62 -1 66 -9 2 -19 -5 -22
-16z"/>
<path d="M9007 4244 c-13 -13 -7 -24 14 -24 11 0 19 5 17 12 -5 14 -22 21 -31
12z"/>
<path d="M9140 4235 c-11 -13 -8 -15 13 -15 19 0 25 4 21 15 -4 8 -10 15 -14
15 -4 0 -13 -7 -20 -15z"/>
<path d="M9422 4238 c-16 -16 -15 -33 4 -48 22 -19 54 12 38 37 -14 22 -27 26
-42 11z"/>
<path d="M9714 4236 c-10 -26 0 -51 21 -51 16 0 20 7 20 30 0 33 -30 49 -41
21z"/>
<path d="M9873 4205 c-3 -9 -3 -18 0 -21 9 -9 27 6 27 22 0 19 -19 18 -27 -1z"/>
<path d="M9961 4236 c-17 -20 -4 -58 17 -54 11 2 17 13 17 32 0 33 -16 44 -34
22z"/>
<path d="M10061 4236 c-17 -20 -4 -58 17 -54 11 2 17 13 17 32 0 33 -16 44
-34 22z"/>
<path d="M10204 4236 c-10 -26 0 -51 21 -51 16 0 20 7 20 30 0 33 -30 49 -41
21z"/>
<path d="M10446 4235 c-4 -10 1 -15 14 -15 11 0 20 7 20 15 0 8 -6 15 -14 15
-8 0 -16 -7 -20 -15z"/>
<path d="M10631 4236 c-17 -20 -4 -58 17 -54 11 2 17 13 17 32 0 33 -16 44
-34 22z"/>
<path d="M10784 4236 c-10 -26 0 -51 21 -51 16 0 20 7 20 30 0 33 -30 49 -41
21z"/>
<path d="M10887 4243 c-11 -10 -8 -51 4 -59 18 -10 42 21 34 45 -6 21 -25 28
-38 14z"/>
<path d="M10987 4244 c-13 -13 -7 -24 14 -24 11 0 19 5 17 12 -5 14 -22 21
-31 12z"/>
<path d="M11346 4232 c-9 -27 3 -54 23 -50 22 5 22 62 -1 66 -9 2 -19 -5 -22
-16z"/>
<path d="M11683 4205 c-3 -9 -3 -18 0 -21 9 -9 27 6 27 22 0 19 -19 18 -27 -1z"/>
<path d="M11826 4235 c-4 -10 1 -15 14 -15 11 0 20 7 20 15 0 8 -6 15 -14 15
-8 0 -16 -7 -20 -15z"/>
<path d="M9585 3500 c-9 -15 4 -30 20 -23 8 3 15 9 15 13 0 12 -29 20 -35 10z"/>
<path d="M9740 3490 c0 -5 5 -10 10 -10 6 0 10 5 10 10 0 6 -4 10 -10 10 -5 0
-10 -4 -10 -10z"/>
</g>
</svg>
