<?xml version="1.0" standalone="no"?>
<!DOCTYPE svg PUBLIC "-//W3C//DTD SVG 20010904//EN"
 "http://www.w3.org/TR/2001/REC-SVG-20010904/DTD/svg10.dtd">
<svg version="1.0" xmlns="http://www.w3.org/2000/svg"
 width="1059.000000pt" height="805.000000pt" viewBox="0 0 1059.000000 805.000000"
 preserveAspectRatio="xMidYMid meet">

<g transform="translate(0.000000,805.000000) scale(0.100000,-0.100000)"
fill="#000000" stroke="none">
<path d="M0 4025 l0 -4025 5295 0 5295 0 0 4025 0 4025 -5295 0 -5295 0 0
-4025z m7345 2925 c61 -30 126 -95 157 -157 l23 -48 0 -2865 0 -2865 -23 -48
c-31 -62 -96 -127 -157 -157 l-50 -25 -2165 0 -2165 0 -50 25 c-62 30 -126 95
-157 157 l-23 48 -3 2840 c-2 2005 1 2853 8 2885 14 59 73 144 125 180 91 63
-70 59 2285 57 l2145 -2 50 -25z"/>
<path d="M4998 5590 c-49 -15 -86 -43 -110 -84 -21 -37 -23 -53 -23 -176 0
-124 2 -138 24 -176 36 -64 87 -87 200 -92 l93 -4 110 108 110 109 -5 96 c-5
122 -27 167 -101 204 -45 22 -62 25 -160 24 -61 0 -123 -4 -138 -9z m207 -214
c30 -46 -1 -96 -59 -96 -22 0 -26 -4 -26 -30 0 -27 -3 -30 -30 -30 l-30 0 0
90 0 90 65 0 c57 0 66 -3 80 -24z"/>
<path d="M5120 5340 c0 -13 5 -20 13 -17 6 2 12 10 12 17 0 7 -6 15 -12 18 -8
2 -13 -5 -13 -18z"/>
<path d="M4060 4810 c0 -13 7 -20 20 -20 13 0 20 7 20 20 0 13 -7 20 -20 20
-13 0 -20 -7 -20 -20z"/>
<path d="M4830 4810 c0 -13 7 -20 20 -20 13 0 20 7 20 20 0 13 -7 20 -20 20
-13 0 -20 -7 -20 -20z"/>
<path d="M5520 4810 c0 -13 7 -20 20 -20 13 0 20 7 20 20 0 13 -7 20 -20 20
-13 0 -20 -7 -20 -20z"/>
<path d="M5996 4808 c-9 -12 -16 -28 -16 -35 0 -7 -4 -13 -10 -13 -5 0 -10 -7
-10 -15 0 -8 5 -15 10 -15 6 0 10 -25 10 -55 0 -52 1 -55 25 -55 24 0 25 3 25
55 0 42 3 55 15 55 8 0 15 7 15 15 0 8 -7 15 -15 15 -22 0 -18 31 5 37 31 8
24 33 -9 33 -20 0 -35 -8 -45 -22z"/>
<path d="M3528 4791 c-28 -25 -33 -36 -33 -75 0 -59 26 -86 87 -93 68 -8 88 7
88 67 l0 50 -45 0 c-38 0 -45 -3 -45 -20 0 -13 7 -20 20 -20 13 0 20 -7 20
-20 0 -14 -7 -20 -23 -20 -51 0 -76 70 -37 105 15 13 30 16 60 12 38 -5 41 -3
38 16 -3 18 -11 22 -50 25 -40 3 -51 -1 -80 -27z"/>
<path d="M4691 4801 c-12 -12 -21 -27 -21 -34 0 -22 28 -54 60 -67 16 -7 30
-17 30 -22 0 -16 -32 -22 -61 -11 -27 10 -29 9 -29 -12 0 -26 17 -35 66 -35
35 0 74 28 74 53 0 22 -28 54 -60 67 -40 17 -33 35 14 35 31 0 36 3 34 20 -4
30 -79 34 -107 6z"/>
<path d="M5683 4805 c-23 -16 -30 -49 -15 -71 4 -6 22 -19 40 -28 17 -9 32
-23 32 -31 0 -17 -32 -20 -61 -5 -16 9 -19 7 -19 -14 0 -38 65 -50 108 -20 37
26 27 74 -20 97 -53 26 -51 51 3 44 37 -5 40 -3 37 16 -2 18 -11 23 -43 25
-25 2 -49 -3 -62 -13z"/>
<path d="M3966 4776 c-26 -23 -34 -46 -17 -46 4 0 11 -21 14 -46 2 -26 11 -50
18 -55 23 -14 59 -10 59 6 0 8 -7 15 -15 15 -11 0 -15 11 -15 40 0 29 4 40 15
40 8 0 15 7 15 15 0 8 -7 15 -15 15 -8 0 -15 9 -15 20 0 26 -13 25 -44 -4z"/>
<path d="M5043 4793 c-7 -2 -13 -11 -13 -19 0 -8 -4 -14 -10 -14 -5 0 -10 -7
-10 -15 0 -8 5 -15 10 -15 6 0 10 -19 10 -43 0 -24 5 -48 12 -55 18 -18 68
-15 68 3 0 8 -7 15 -15 15 -11 0 -15 11 -15 40 0 29 4 40 15 40 8 0 15 7 15
15 0 8 -7 15 -15 15 -8 0 -15 9 -15 20 0 19 -12 24 -37 13z"/>
<path d="M6103 4793 c-7 -2 -13 -11 -13 -19 0 -8 -4 -14 -10 -14 -5 0 -10 -7
-10 -15 0 -8 5 -15 10 -15 6 0 10 -19 10 -43 0 -24 5 -48 12 -55 18 -18 68
-15 68 3 0 8 -7 15 -15 15 -11 0 -15 11 -15 40 0 32 4 40 19 40 13 0 22 -13
32 -52 12 -45 18 -53 38 -53 20 0 26 8 36 40 l12 40 12 -42 c9 -35 16 -43 35
-43 19 0 25 9 39 60 21 75 21 80 -2 80 -15 0 -20 -10 -26 -47 l-8 -48 -14 48
c-10 34 -19 47 -33 47 -14 0 -23 -13 -33 -47 l-14 -48 -9 45 c-9 43 -11 45
-47 48 -29 3 -37 7 -37 23 0 18 -12 23 -37 12z"/>
<path d="M3709 4742 c-28 -23 -30 -73 -4 -102 18 -20 58 -26 89 -14 29 11 17
29 -21 29 -20 0 -38 6 -40 13 -3 8 9 12 41 12 39 0 46 3 46 20 0 27 -35 60
-64 60 -13 0 -34 -8 -47 -18z m66 -22 c4 -6 -5 -10 -20 -10 -15 0 -24 4 -20
10 3 6 12 10 20 10 8 0 17 -4 20 -10z"/>
<path d="M3848 4749 c-28 -16 -22 -48 12 -67 38 -22 38 -35 0 -30 -24 4 -30 1
-30 -14 0 -14 8 -18 38 -18 69 0 94 56 37 82 -32 15 -32 32 0 26 19 -4 25 -1
25 13 0 15 -7 19 -32 19 -18 0 -41 -5 -50 -11z"/>
<path d="M4060 4690 c0 -63 2 -70 20 -70 18 0 20 7 20 70 0 63 -2 70 -20 70
-18 0 -20 -7 -20 -70z"/>
<path d="M4149 4742 c-15 -13 -22 -30 -22 -52 0 -87 128 -94 149 -8 14 59 -75
101 -127 60z m76 -52 c0 -31 -3 -35 -25 -35 -19 0 -26 6 -28 23 -5 36 5 54 30
50 19 -2 23 -9 23 -38z"/>
<path d="M4300 4690 c0 -63 2 -70 20 -70 17 0 20 7 20 43 0 50 12 72 34 64 12
-5 16 -20 16 -57 0 -47 1 -50 26 -50 26 0 27 1 21 56 -3 30 -11 62 -18 70 -14
17 -51 18 -67 2 -9 -9 -12 -9 -12 0 0 7 -9 12 -20 12 -18 0 -20 -7 -20 -70z"/>
<path d="M4470 4733 c-40 -51 -9 -113 54 -113 63 0 76 33 14 34 -53 1 -47 26
6 26 39 0 46 3 46 20 0 57 -83 80 -120 33z m75 -13 c4 -6 -5 -10 -20 -10 -15
0 -24 4 -20 10 3 6 12 10 20 10 8 0 17 -4 20 -10z"/>
<path d="M4830 4690 c0 -63 2 -70 20 -70 18 0 20 7 20 70 0 63 -2 70 -20 70
-18 0 -20 -7 -20 -70z"/>
<path d="M4906 4741 c-22 -24 -8 -56 29 -65 36 -9 31 -28 -7 -24 -24 2 -33 -1
-33 -12 0 -19 56 -26 85 -10 31 17 26 55 -10 70 -38 16 -39 32 -2 28 19 -2 27
2 27 12 0 24 -67 25 -89 1z"/>
<path d="M5130 4733 c-40 -51 -9 -113 54 -113 63 0 76 33 14 34 -53 1 -47 26
6 26 39 0 46 3 46 20 0 57 -83 80 -120 33z m75 -13 c4 -6 -5 -10 -20 -10 -15
0 -24 4 -20 10 3 6 12 10 20 10 8 0 17 -4 20 -10z"/>
<path d="M5270 4690 c0 -63 2 -70 20 -70 17 0 20 7 20 50 0 37 4 52 16 57 22
8 34 -14 34 -64 0 -36 3 -43 19 -43 17 0 20 8 23 52 2 41 7 54 21 56 14 3 17
-5 17 -52 0 -53 1 -56 25 -56 23 0 25 3 25 51 0 81 -27 107 -80 79 -13 -7 -21
-7 -25 0 -9 14 -48 13 -63 -2 -9 -9 -12 -9 -12 0 0 7 -9 12 -20 12 -18 0 -20
-7 -20 -70z"/>
<path d="M5520 4690 c0 -63 2 -70 20 -70 18 0 20 7 20 70 0 63 -2 70 -20 70
-18 0 -20 -7 -20 -70z"/>
<path d="M5829 4742 c-15 -13 -22 -30 -22 -52 0 -87 128 -94 149 -8 14 59 -75
101 -127 60z m76 -52 c0 -31 -3 -35 -25 -35 -19 0 -26 6 -28 23 -5 36 5 54 30
50 19 -2 23 -9 23 -38z"/>
<path d="M6411 4751 c-21 -14 -5 -28 27 -23 16 2 33 -1 36 -7 5 -7 -2 -11 -16
-11 -51 0 -87 -52 -55 -78 6 -6 36 -10 65 -10 l52 -1 0 47 c0 62 -21 92 -63
92 -18 0 -38 -4 -46 -9z m69 -70 c0 -5 -7 -14 -15 -21 -18 -15 -42 1 -31 19 8
13 46 15 46 2z"/>
<path d="M6540 4690 c0 -68 1 -70 24 -70 23 0 25 5 28 48 3 40 6 47 26 50 14
2 22 10 22 23 0 21 -20 25 -38 7 -9 -9 -12 -9 -12 0 0 7 -11 12 -25 12 -24 0
-25 -2 -25 -70z"/>
<path d="M6660 4733 c-40 -51 -9 -113 54 -113 63 0 76 33 14 34 -53 1 -47 26
6 26 39 0 46 3 46 20 0 57 -83 80 -120 33z m75 -13 c4 -6 -5 -10 -20 -10 -15
0 -24 4 -20 10 3 6 12 10 20 10 8 0 17 -4 20 -10z"/>
<path d="M3080 4182 c0 -41 14 -62 42 -62 22 0 38 29 38 69 0 21 -5 31 -15 31
-11 0 -15 -11 -15 -40 0 -22 -4 -40 -10 -40 -5 0 -10 18 -10 40 0 29 -4 40
-15 40 -11 0 -15 -11 -15 -38z"/>
<path d="M3174 4178 c-4 -6 1 -17 11 -25 17 -12 17 -13 2 -13 -9 0 -17 -4 -17
-10 0 -5 9 -10 20 -10 25 0 38 29 19 41 -10 6 -10 9 -1 9 6 0 12 5 12 10 0 14
-37 13 -46 -2z"/>
<path d="M3242 4173 c-13 -24 3 -53 28 -53 25 0 26 17 3 23 -13 3 -12 5 5 6
17 1 22 6 20 19 -5 24 -44 28 -56 5z"/>
<path d="M3310 4155 c0 -24 5 -35 15 -35 9 0 15 9 15 25 0 14 5 25 10 25 6 0
10 -11 10 -25 0 -16 6 -25 15 -25 9 0 15 9 15 25 0 14 5 25 10 25 6 0 10 -11
10 -25 0 -14 5 -25 10 -25 6 0 10 15 10 34 l0 33 -60 2 -60 1 0 -35z"/>
<path d="M3450 4180 c0 -5 8 -10 18 -11 12 0 11 -3 -6 -10 -32 -12 -23 -33 16
-37 26 -3 32 0 32 17 0 35 -12 51 -36 51 -13 0 -24 -4 -24 -10z"/>
<path d="M3520 4155 c0 -43 27 -49 33 -7 l4 27 2 -27 c0 -17 7 -28 15 -28 8 0
17 12 19 28 l4 27 2 -27 c0 -18 7 -28 17 -28 11 0 14 8 12 33 -3 31 -4 32 -55
35 l-53 2 0 -35z"/>
<path d="M3649 4174 c-16 -20 -1 -48 30 -52 25 -4 29 15 4 21 -14 4 -12 5 5 6
25 1 28 11 10 29 -16 16 -33 15 -49 -4z"/>
<path d="M3360 3867 c0 -7 -10 -17 -22 -22 -17 -7 -23 -18 -23 -40 0 -27 4
-30 33 -33 l32 -3 0 55 c0 31 -4 56 -10 56 -5 0 -10 -6 -10 -13z m0 -57 c0
-31 -16 -41 -26 -15 -8 19 2 45 16 45 5 0 10 -13 10 -30z"/>
<path d="M3530 3870 c0 -5 7 -10 15 -10 8 0 15 5 15 10 0 6 -7 10 -15 10 -8 0
-15 -4 -15 -10z"/>
<path d="M3230 3842 c0 -6 9 -8 20 -5 11 3 20 0 20 -6 0 -6 -6 -11 -13 -11
-19 0 -36 -20 -30 -36 3 -8 18 -14 35 -14 28 0 29 2 26 38 -3 32 -7 37 -30 40
-16 2 -28 -1 -28 -6z m40 -47 c0 -8 -4 -15 -10 -15 -5 0 -10 7 -10 15 0 8 5
15 10 15 6 0 10 -7 10 -15z"/>
<path d="M3400 3810 c0 -47 17 -54 22 -8 4 46 28 49 28 4 0 -20 5 -36 10 -36
6 0 10 13 10 29 0 17 5 33 10 36 6 4 10 -8 10 -29 0 -26 4 -36 16 -36 12 0 14
9 12 37 l-3 38 -57 3 -58 2 0 -40z"/>
<path d="M3530 3810 c0 -29 4 -40 15 -40 11 0 15 11 15 40 0 29 -4 40 -15 40
-11 0 -15 -11 -15 -40z"/>
<path d="M3580 3811 c0 -23 5 -41 10 -41 6 0 10 16 10 35 0 19 5 35 10 35 6 0
10 -16 10 -35 0 -25 4 -35 16 -35 12 0 14 9 12 38 -3 34 -6 37 -35 40 -32 3
-33 2 -33 -37z"/>
<path d="M3080 3361 c0 -39 4 -51 15 -51 8 0 15 6 15 14 0 7 9 16 21 19 16 4
20 12 17 34 -2 23 -8 28 -35 31 l-33 3 0 -50z m37 7 c-3 -8 -6 -5 -6 6 -1 11
2 17 5 13 3 -3 4 -12 1 -19z"/>
<path d="M3650 3396 c0 -7 -9 -16 -21 -19 -16 -4 -20 -12 -17 -34 2 -23 8 -28
36 -31 l32 -3 0 50 c0 39 -4 51 -15 51 -8 0 -15 -6 -15 -14z m0 -51 c0 -8 -4
-15 -10 -15 -5 0 -10 7 -10 15 0 8 5 15 10 15 6 0 10 -7 10 -15z"/>
<path d="M3160 3371 c0 -6 10 -11 23 -12 l22 0 -22 -9 c-35 -14 -29 -39 8 -38
27 1 30 4 27 32 -2 25 -8 32 -30 34 -16 2 -28 -1 -28 -7z"/>
<path d="M3236 3365 c-3 -8 2 -19 12 -24 16 -10 16 -10 0 -11 -10 0 -18 -4
-18 -10 0 -14 47 -13 56 2 4 6 -1 17 -11 25 -11 7 -13 13 -7 13 7 0 12 5 12
10 0 16 -37 12 -44 -5z"/>
<path d="M3303 3364 c-3 -9 0 -20 8 -25 10 -6 10 -9 2 -9 -7 0 -13 -4 -13 -10
0 -14 37 -13 46 2 4 6 -1 17 -11 25 -11 7 -13 13 -7 13 7 0 12 5 12 10 0 16
-30 11 -37 -6z"/>
<path d="M3364 3358 c3 -13 6 -29 6 -35 0 -7 6 -13 14 -13 8 0 17 6 20 13 5
10 7 10 12 0 3 -7 12 -13 20 -13 8 0 14 6 14 13 0 6 3 22 6 35 4 12 2 22 -4
22 -6 0 -13 -8 -15 -17 -4 -17 -5 -17 -6 0 0 9 -8 17 -16 17 -8 0 -15 -8 -15
-17 -1 -17 -1 -17 -14 0 -18 24 -29 21 -22 -5z"/>
<path d="M3474 3366 c-11 -28 1 -51 25 -51 32 0 49 28 32 49 -17 20 -50 21
-57 2z m36 -21 c0 -8 -4 -15 -10 -15 -5 0 -10 7 -10 15 0 8 5 15 10 15 6 0 10
-7 10 -15z"/>
<path d="M3550 3345 c0 -24 5 -35 15 -35 9 0 15 9 15 25 0 14 5 25 10 25 6 0
10 5 10 10 0 6 -11 10 -25 10 -22 0 -25 -4 -25 -35z"/>
<path d="M3240 3015 c-11 -13 -11 -19 3 -32 21 -21 49 -9 45 19 -4 28 -30 35
-48 13z"/>
<path d="M3324 3015 c-8 -21 2 -45 19 -45 8 0 20 7 27 15 10 12 10 18 0 30 -7
8 -19 15 -27 15 -7 0 -16 -7 -19 -15z"/>
<path d="M3410 3015 c-11 -13 -11 -19 3 -32 21 -21 49 -9 45 19 -4 28 -30 35
-48 13z"/>
<path d="M3494 3016 c-9 -24 4 -48 23 -44 12 2 18 12 18 28 0 29 -32 41 -41
16z"/>
<path d="M3574 3016 c-10 -26 4 -48 28 -44 17 2 23 10 23 28 0 18 -6 26 -23
28 -13 2 -25 -3 -28 -12z"/>
<path d="M3664 3016 c-9 -24 4 -48 23 -44 12 2 18 12 18 28 0 29 -32 41 -41
16z"/>
<path d="M3744 3016 c-10 -26 4 -48 28 -44 17 2 23 10 23 28 0 18 -6 26 -23
28 -13 2 -25 -3 -28 -12z"/>
<path d="M3834 3016 c-9 -24 4 -48 23 -44 12 2 18 12 18 28 0 29 -32 41 -41
16z"/>
<path d="M3914 3015 c-8 -21 2 -45 19 -45 8 0 20 7 27 15 10 12 10 18 0 30 -7
8 -19 15 -27 15 -7 0 -16 -7 -19 -15z"/>
<path d="M4000 3015 c-11 -13 -11 -19 3 -32 21 -21 49 -9 45 19 -4 28 -30 35
-48 13z"/>
<path d="M3160 2628 c-70 -35 -90 -85 -90 -218 0 -133 20 -183 90 -217 l44
-23 1926 0 1926 0 44 23 c72 36 85 69 85 217 0 147 -12 179 -84 217 l-44 23
-1926 0 -1927 0 -44 -22z m2160 -218 l0 -60 -35 0 c-24 0 -37 6 -45 20 -12 22
-65 29 -57 8 2 -7 14 -12 26 -11 11 2 21 -1 21 -6 0 -5 -63 -9 -140 -8 -111 0
-140 3 -140 14 0 7 -7 13 -15 13 -8 0 -15 -7 -15 -15 0 -8 -9 -15 -19 -15 -19
0 -19 1 -2 53 25 72 51 76 73 10 13 -38 16 -43 17 -21 1 33 11 36 133 37 78 0
99 -3 106 -16 8 -14 10 -14 15 1 4 9 16 16 27 16 13 0 20 7 20 20 0 11 7 20
15 20 12 0 15 -13 15 -60z m50 40 c0 -5 -9 -10 -20 -10 -11 0 -20 5 -20 10 0
6 9 10 20 10 11 0 20 -4 20 -10z m0 -60 c0 -29 -4 -40 -15 -40 -11 0 -15 11
-15 40 0 29 4 40 15 40 11 0 15 -11 15 -40z"/>
<path d="M5027 2413 c-10 -9 -8 -41 2 -47 16 -10 41 5 41 24 0 10 -7 21 -16
24 -19 7 -19 7 -27 -1z"/>
<path d="M5107 2413 c-10 -10 -8 -41 3 -48 24 -15 48 30 25 47 -13 10 -20 10
-28 1z"/>
<path d="M5180 2410 c0 -5 5 -10 10 -10 6 0 10 5 10 10 0 6 -4 10 -10 10 -5 0
-10 -4 -10 -10z"/>
<path d="M5277 2413 c-11 -10 -8 -53 3 -53 6 0 10 14 10 30 0 31 -2 35 -13 23z"/>
</g>
</svg>
